<mxfile host="app.diagrams.net" agent="Mozilla/5.0 (Windows NT 10.0; Win64; x64) AppleWebKit/537.36 (KHTML, like Gecko) Chrome/135.0.0.0 Safari/537.36" version="26.2.14">
  <diagram name="Страница — 1" id="zcFf4VPZttUS6591rmjO">
    <mxGraphModel dx="2253" dy="811" grid="1" gridSize="10" guides="1" tooltips="1" connect="1" arrows="1" fold="1" page="1" pageScale="1" pageWidth="827" pageHeight="1169" math="0" shadow="0">
      <root>
        <mxCell id="0" />
        <mxCell id="1" parent="0" />
        <mxCell id="QKfmMPg8BV2pelgd5ERt-1" style="edgeStyle=orthogonalEdgeStyle;rounded=0;orthogonalLoop=1;jettySize=auto;html=1;" parent="1" source="QKfmMPg8BV2pelgd5ERt-3" target="QKfmMPg8BV2pelgd5ERt-6" edge="1">
          <mxGeometry relative="1" as="geometry" />
        </mxCell>
        <mxCell id="QKfmMPg8BV2pelgd5ERt-2" value="1. Зайти в Кафе" style="edgeLabel;html=1;align=center;verticalAlign=middle;resizable=0;points=[];" parent="QKfmMPg8BV2pelgd5ERt-1" vertex="1" connectable="0">
          <mxGeometry x="0.1916" y="3" relative="1" as="geometry">
            <mxPoint y="13" as="offset" />
          </mxGeometry>
        </mxCell>
        <mxCell id="QKfmMPg8BV2pelgd5ERt-3" value="Пользователь" style="shape=umlActor;verticalLabelPosition=bottom;verticalAlign=top;html=1;outlineConnect=0;" parent="1" vertex="1">
          <mxGeometry x="159" y="510" width="30" height="60" as="geometry" />
        </mxCell>
        <mxCell id="QKfmMPg8BV2pelgd5ERt-4" value="" style="edgeStyle=orthogonalEdgeStyle;rounded=0;orthogonalLoop=1;jettySize=auto;html=1;" parent="1" source="QKfmMPg8BV2pelgd5ERt-6" target="QKfmMPg8BV2pelgd5ERt-7" edge="1">
          <mxGeometry relative="1" as="geometry" />
        </mxCell>
        <mxCell id="QKfmMPg8BV2pelgd5ERt-5" value="2. Подойти к баристе" style="edgeLabel;html=1;align=center;verticalAlign=middle;resizable=0;points=[];" parent="QKfmMPg8BV2pelgd5ERt-4" vertex="1" connectable="0">
          <mxGeometry x="-0.422" y="4" relative="1" as="geometry">
            <mxPoint x="42" y="4" as="offset" />
          </mxGeometry>
        </mxCell>
        <mxCell id="QKfmMPg8BV2pelgd5ERt-6" value="Выбрать позицию" style="rounded=0;whiteSpace=wrap;html=1;" parent="1" vertex="1">
          <mxGeometry x="329" y="460" width="120" height="60" as="geometry" />
        </mxCell>
        <mxCell id="QKfmMPg8BV2pelgd5ERt-7" value="Сказать свой Заказ" style="whiteSpace=wrap;html=1;rounded=0;" parent="1" vertex="1">
          <mxGeometry x="549" y="530" width="120" height="60" as="geometry" />
        </mxCell>
        <mxCell id="QKfmMPg8BV2pelgd5ERt-8" style="edgeStyle=orthogonalEdgeStyle;rounded=0;orthogonalLoop=1;jettySize=auto;html=1;endArrow=none;endFill=0;startArrow=classic;startFill=1;" parent="1" source="QKfmMPg8BV2pelgd5ERt-10" target="QKfmMPg8BV2pelgd5ERt-7" edge="1">
          <mxGeometry relative="1" as="geometry" />
        </mxCell>
        <mxCell id="QKfmMPg8BV2pelgd5ERt-9" value="3. Проверить заказ" style="edgeLabel;html=1;align=center;verticalAlign=middle;resizable=0;points=[];" parent="QKfmMPg8BV2pelgd5ERt-8" vertex="1" connectable="0">
          <mxGeometry x="-0.0718" y="1" relative="1" as="geometry">
            <mxPoint as="offset" />
          </mxGeometry>
        </mxCell>
        <mxCell id="QKfmMPg8BV2pelgd5ERt-12" style="edgeStyle=orthogonalEdgeStyle;rounded=0;orthogonalLoop=1;jettySize=auto;html=1;entryX=1;entryY=0.5;entryDx=0;entryDy=0;" parent="1" source="QKfmMPg8BV2pelgd5ERt-10" target="QKfmMPg8BV2pelgd5ERt-11" edge="1">
          <mxGeometry relative="1" as="geometry" />
        </mxCell>
        <mxCell id="QKfmMPg8BV2pelgd5ERt-13" value="4. Ожидание печати чека" style="edgeLabel;html=1;align=center;verticalAlign=middle;resizable=0;points=[];" parent="QKfmMPg8BV2pelgd5ERt-12" vertex="1" connectable="0">
          <mxGeometry x="-0.0087" y="-1" relative="1" as="geometry">
            <mxPoint as="offset" />
          </mxGeometry>
        </mxCell>
        <mxCell id="QKfmMPg8BV2pelgd5ERt-10" value="Оплатить заказ" style="rounded=0;whiteSpace=wrap;html=1;" parent="1" vertex="1">
          <mxGeometry x="320" y="680" width="120" height="60" as="geometry" />
        </mxCell>
        <mxCell id="QKfmMPg8BV2pelgd5ERt-17" style="edgeStyle=orthogonalEdgeStyle;rounded=0;orthogonalLoop=1;jettySize=auto;html=1;" parent="1" source="QKfmMPg8BV2pelgd5ERt-11" target="QKfmMPg8BV2pelgd5ERt-14" edge="1">
          <mxGeometry relative="1" as="geometry" />
        </mxCell>
        <mxCell id="QKfmMPg8BV2pelgd5ERt-20" value="Вспомнить про дисерт" style="edgeLabel;html=1;align=center;verticalAlign=middle;resizable=0;points=[];" parent="QKfmMPg8BV2pelgd5ERt-17" vertex="1" connectable="0">
          <mxGeometry x="0.1" y="-1" relative="1" as="geometry">
            <mxPoint as="offset" />
          </mxGeometry>
        </mxCell>
        <mxCell id="QKfmMPg8BV2pelgd5ERt-11" value="Забрать чек" style="rounded=0;whiteSpace=wrap;html=1;" parent="1" vertex="1">
          <mxGeometry x="60" y="680" width="120" height="60" as="geometry" />
        </mxCell>
        <mxCell id="QKfmMPg8BV2pelgd5ERt-18" style="edgeStyle=orthogonalEdgeStyle;rounded=0;orthogonalLoop=1;jettySize=auto;html=1;" parent="1" source="QKfmMPg8BV2pelgd5ERt-14" target="QKfmMPg8BV2pelgd5ERt-15" edge="1">
          <mxGeometry relative="1" as="geometry" />
        </mxCell>
        <mxCell id="QKfmMPg8BV2pelgd5ERt-21" value="6. Ожидание приготовление кофе" style="edgeLabel;html=1;align=center;verticalAlign=middle;resizable=0;points=[];" parent="QKfmMPg8BV2pelgd5ERt-18" vertex="1" connectable="0">
          <mxGeometry x="0.256" y="1" relative="1" as="geometry">
            <mxPoint x="1" y="11" as="offset" />
          </mxGeometry>
        </mxCell>
        <mxCell id="QKfmMPg8BV2pelgd5ERt-14" value="Забрать десерт" style="rounded=0;whiteSpace=wrap;html=1;" parent="1" vertex="1">
          <mxGeometry x="-240" y="710" width="120" height="60" as="geometry" />
        </mxCell>
        <mxCell id="QKfmMPg8BV2pelgd5ERt-19" style="edgeStyle=orthogonalEdgeStyle;rounded=0;orthogonalLoop=1;jettySize=auto;html=1;entryX=0.5;entryY=0.5;entryDx=0;entryDy=0;entryPerimeter=0;" parent="1" source="QKfmMPg8BV2pelgd5ERt-15" target="QKfmMPg8BV2pelgd5ERt-3" edge="1">
          <mxGeometry relative="1" as="geometry">
            <mxPoint x="-50" y="550" as="targetPoint" />
            <Array as="points">
              <mxPoint x="90" y="630" />
              <mxPoint x="90" y="540" />
            </Array>
          </mxGeometry>
        </mxCell>
        <mxCell id="QKfmMPg8BV2pelgd5ERt-22" value="7. Выйти из кафе" style="edgeLabel;html=1;align=center;verticalAlign=middle;resizable=0;points=[];" parent="QKfmMPg8BV2pelgd5ERt-19" vertex="1" connectable="0">
          <mxGeometry x="0.0853" y="3" relative="1" as="geometry">
            <mxPoint x="-28" y="-7" as="offset" />
          </mxGeometry>
        </mxCell>
        <mxCell id="QKfmMPg8BV2pelgd5ERt-15" value="Забрать кофе" style="rounded=0;whiteSpace=wrap;html=1;" parent="1" vertex="1">
          <mxGeometry x="-240" y="600" width="120" height="60" as="geometry" />
        </mxCell>
      </root>
    </mxGraphModel>
  </diagram>
</mxfile>
